<svg fill="none" height="32" viewBox="0 0 512 512" width="32" xmlns="http://www.w3.org/2000/svg" aria-hidden="true"><g><path d="M256 512c141.383 0 256-114.617 256-256S397.383 0 256 0 0 114.617 0 256s114.617 256 256 256" fill="#0F0F0F"></path><path d="M467.287 188.707c18.349 62.237 10.15 138.185-34.012 187.965-45.239 45.726-105.649 21.639-137.068-26.713-80.902-119.321-132.417-41.17-217.1382-93.234-58.4456-44.326-18.677-125.469 25.9072-164.6124 33.07-32.071 77.505-52.622 123.153-58.6609C332.237 17.9059 439.183 87.7467 467.41 188.693l-.191.054.068-.054zM207.352 79.5861c-.041-.1224-.492.1905-.519.068-31.501 9.4255-59.687 26.2639-81.938 50.5139-25.1165 27.637-51.4198 79.09-15.689 108.454 31.31 28.467 76.126 16.076 113.535 27.42 65.43 14.213 76.876 92.989 140.179 98.593 37.435.68 57.927-38.028 66.604-69.474 14.597-52.853 1.896-112.044-32.716-154.615-42.988-55.8051-121.857-81.5109-189.443-60.9599z" fill="url(#:r8:)"></path><path d="M389.086 213.351c11.433 37.892 7.886 102.483-32.742 118.206-33.111 12.812-54.885-27.461-76.959-46.692-44.748-43.333-84.803-26.781-130.588-47.781-36.331-22.278-7.286-67.256 15.743-88.27 26.508-24.196 62.73-36.437 98.487-35.185 58.009 2.366 110.207 43.849 125.964 99.409m-159.743-53.914c-26.549 7.902-73.685 40.49-50.587 71.092 15.361 13.71 38.881 8.705 57.013 16.756 15.962 5.658 31.392 13.601 44.393 24.496 13.629 10.391 22.92 29.011 41.542 30.643 29.278-1.456 33.07-41.238 29.919-63.87-5.73-56.526-66.045-96.594-121.311-79.403" fill="url(#:r9:)"></path><path d="M313.705 229.498c4.155 12.252 7.288 32.389-7.276 36.456-13.581 3.818-25.091-10.613-38.154-18.326-14.67-8.895-33.097-7.688-45.576-20.728-9.851-10.599 1.819-24.479 10.7-29.871 27.401-17.132 68.371.932 80.279 32.482h.027z" fill="url(#:ra:)"></path></g><defs><linearGradient gradientUnits="userSpaceOnUse" id=":r8:" x1="375.839" x2="375.839" y1="69.3718" y2="374.033"><stop offset=".07" stop-color="#34F380"></stop><stop offset=".41" stop-color="#8349FF"></stop><stop offset=".71" stop-color="#0459FF"></stop><stop offset="1" stop-color="#00D4FF"></stop></linearGradient><linearGradient gradientUnits="userSpaceOnUse" id=":r9:" x1="277.612" x2="277.612" y1="320.989" y2="127.855"><stop offset=".07" stop-color="#34F380"></stop><stop offset=".41" stop-color="#8349FF"></stop><stop offset=".71" stop-color="#0459FF"></stop><stop offset="1" stop-color="#00D4FF"></stop></linearGradient><linearGradient gradientUnits="userSpaceOnUse" id=":ra:" x1="284.898" x2="273.646" y1="266.563" y2="189.412"><stop stop-color="#34F380"></stop><stop offset="1" stop-color="#00D4FF"></stop></linearGradient></defs></svg>
